PathFileType	4	(X/Y/Z)	C:/Users/opensim2020/Desktop/walking_exp_matlab/subject03_walking15_straight_02.trc	
DataRate	CameraRate	NumFrames	NumMarkers	Units	OrigDataRate	OrigDataStartFrame	OrigNumFrames	
100.00	100.00	6	47	mm	100.00	1122	149	
Frame#	Time	LFHD			RFHD			LBHD			RBHD			C7			T10			CLAV			STRN			RBAK			LSHO			LUPA			LELB			LFRM			LWRA			LWRB			LFIN			RSHO			RUPA			RELB			RFRM			RWRA			RWRB			RFIN			LASI			RASI			LPSI			RPSI			LTHI			LKNE			LTIB			LANK			LHEE			LTOE			RTHI			RKNE			RTIB			RANK			RHEE			RTOE			*39			*40			*41			*42			*43			*44			*45			*46			
		X1	Y1	Z1	X2	Y2	Z2	X3	Y3	Z3	X4	Y4	Z4	X5	Y5	Z5	X6	Y6	Z6	X7	Y7	Z7	X8	Y8	Z8	X9	Y9	Z9	X10	Y10	Z10	X11	Y11	Z11	X12	Y12	Z12	X13	Y13	Z13	X14	Y14	Z14	X15	Y15	Z15	X16	Y16	Z16	X17	Y17	Z17	X18	Y18	Z18	X19	Y19	Z19	X20	Y20	Z20	X21	Y21	Z21	X22	Y22	Z22	X23	Y23	Z23	X24	Y24	Z24	X25	Y25	Z25	X26	Y26	Z26	X27	Y27	Z27	X28	Y28	Z28	X29	Y29	Z29	X30	Y30	Z30	X31	Y31	Z31	X32	Y32	Z32	X33	Y33	Z33	X34	Y34	Z34	X35	Y35	Z35	X36	Y36	Z36	X37	Y37	Z37	X38	Y38	Z38	X39	Y39	Z39	X40	Y40	Z40	X41	Y41	Z41	X42	Y42	Z42	X43	Y43	Z43	X44	Y44	Z44	X45	Y45	Z45	X46	Y46	Z46	X47	Y47	Z47	

38	0.370	-914.12476	504.92749	1589.21423	-1045.87671	505.89127	1605.90308	-922.01556	632.94183	1546.34192	-1051.95801	628.89313	1562.08997	-992.68207	661.19824	1393.20679	-1001.74585	706.39294	1082.49280	-993.52325	539.12885	1315.49243	-993.27118	501.27850	1148.70728	-1099.36206	713.48206	1223.36304	-836.44934	589.16168	1349.61218	-765.73785	640.60535	1157.99744	-751.24609	663.96112	1037.20044	-743.83423	683.50781	907.80524	-766.61536	713.62573	789.35205	-713.50439	728.52527	806.05762	-724.76678	772.77417	728.32941	-1153.13892	580.27399	1346.87500	-1239.50952	557.56946	1133.47632	-1256.69702	524.75891	1027.66736	-1254.50317	463.69803	906.50055	-1215.02600	402.45465	833.16681	-1256.60559	428.78516	812.93781	-1247.64600	372.93591	767.24298	-890.07202	531.24524	923.71631	-1124.89233	548.06323	910.80206	-923.54504	698.05560	937.43390	-1074.64111	705.77643	942.72198	-836.18750	503.57690	632.92407	-879.77740	439.47263	472.60043	-877.15601	449.51794	272.15820	-915.60449	429.77341	63.80232	-951.30157	469.17795	30.24532	-942.12701	279.43176	33.80585	-1171.15686	649.27081	623.83826	-1150.74158	672.83026	443.30353	-1156.63757	818.11060	309.30002	-1116.69592	969.28070	154.38824	-1065.11926	1020.85919	158.86620	-1095.13159	893.36725	30.41246	-956.65741	588.01074	1654.96252																					 
39	0.380	-912.84393	490.22678	1590.02832	-1044.58386	491.20230	1606.75330	-920.79364	618.33710	1547.33948	-1050.64014	614.08868	1563.07385	-991.11035	646.22748	1394.23877	-1000.58862	691.34082	1083.28943	-992.54108	524.37897	1316.72437	-992.40833	485.85889	1150.08704	-1097.69934	699.04944	1224.05786	-835.26355	573.32843	1350.59265	-764.31750	623.17694	1158.57153	-750.20447	646.16205	1037.69092	-743.13934	665.47693	908.21710	-766.52277	696.77350	789.46271	-712.45538	709.81653	806.31476	-724.31274	756.07074	729.24982	-1152.02356	566.13361	1347.77454	-1238.02417	545.05096	1133.82947	-1255.11609	512.82007	1027.56226	-1253.30566	453.42606	905.51483	-1214.25928	392.87448	831.19073	-1255.77795	419.82535	811.40955	-1247.12817	364.97815	764.50732	-888.99896	515.75159	925.46155	-1123.29846	532.09326	910.92053	-923.26178	682.43774	939.17456	-1074.37573	689.83539	942.80237	-834.07684	489.77365	634.81683	-878.74158	424.88107	474.10901	-874.75922	439.82465	272.82510	-915.72894	428.51553	63.99944	-951.02234	468.76184	30.44472	-943.34943	278.42694	32.76626	-1170.56152	628.59094	621.91956	-1151.57971	647.88214	441.16336	-1156.32739	797.09863	311.88135	-1115.42224	952.96332	162.82762	-1062.55981	1002.26447	172.12578	-1093.91406	892.71063	31.01208	-955.08069	573.28558	1655.68591																					 
40	0.390	-911.69818	475.67996	1590.67920	-1043.41052	476.59290	1607.46143	-919.67102	603.75208	1548.15613	-1049.53406	599.63660	1563.99878	-989.70715	631.47784	1395.20789	-999.41614	676.39545	1083.94812	-991.70074	509.70654	1317.79456	-991.73517	470.54135	1151.39771	-1096.22473	684.69293	1224.83057	-834.32971	557.61041	1351.72607	-763.00165	605.51947	1159.34583	-749.32507	628.03864	1038.33594	-742.52362	646.70441	908.83533	-765.91101	678.00812	789.99988	-711.62396	690.22046	806.38385	-723.55609	737.84363	729.96655	-1150.86829	552.06976	1348.60278	-1236.50183	532.57190	1134.32776	-1253.50928	501.28638	1027.65820	-1252.09827	443.70157	904.53204	-1213.60950	384.00443	829.09613	-1254.93359	411.55725	809.94269	-1246.56165	357.91159	761.60291	-887.83246	500.41013	927.46021	-1121.76526	516.46564	911.31555	-923.20605	667.35590	940.86115	-1074.15625	674.16785	942.87549	-832.43945	476.64224	636.10468	-877.19867	411.77362	475.05811	-873.85553	431.96194	273.21054	-915.83545	427.91397	64.31934	-951.13794	468.30200	30.27803	-944.03180	277.82544	32.10320	-1169.85962	607.35535	619.81506	-1151.26404	622.27747	439.00607	-1155.21741	774.60236	314.34979	-1114.66602	934.23975	169.97182	-1060.57141	981.36353	184.74884	-1092.40710	890.59406	32.67460	-953.85980	558.56885	1656.71960																					 
41	0.400	-910.57159	461.23004	1591.11548	-1042.28967	462.07642	1608.07483	-918.66132	589.37402	1548.81384	-1048.50342	585.21625	1564.79590	-988.35449	617.08282	1395.92188	-998.41748	661.65637	1084.62500	-990.98535	495.13168	1318.73999	-991.21326	455.39615	1152.57837	-1094.90845	670.56799	1225.59009	-833.54419	541.88391	1352.87305	-761.73828	587.80762	1160.09692	-748.49658	609.50140	1038.99170	-741.99652	627.35950	909.34711	-764.92004	657.82770	790.73413	-710.59015	669.67883	806.63855	-722.57782	718.16302	730.27655	-1149.78711	538.40729	1349.77747	-1234.93335	520.20361	1134.90259	-1251.91785	489.97046	1027.81580	-1250.93726	434.32852	903.63666	-1212.77136	375.75623	826.98639	-1254.09326	403.89572	808.44073	-1245.99219	351.62704	758.67859	-886.93750	485.96692	929.28656	-1120.41370	501.23294	911.85419	-923.30347	652.61377	942.43866	-1073.97217	659.04956	942.93134	-830.91565	463.91122	636.73370	-875.44684	400.86099	474.59122	-873.04822	425.68069	273.28214	-915.82556	427.64639	64.47668	-951.33191	468.17505	30.27494	-943.38593	277.44437	31.56026	-1169.01587	585.89484	617.46643	-1150.38770	596.20911	436.80887	-1153.90796	750.50360	316.22708	-1113.83936	914.30841	176.60887	-1059.48364	960.07574	196.51414	-1091.53247	881.88940	38.00819	-952.89178	543.82269	1657.34546																					 
42	0.410	-909.58917	446.85071	1591.63818	-1041.27661	447.69409	1608.84131	-917.77338	575.10785	1549.42346	-1047.64172	570.88281	1565.65649	-987.09692	603.05261	1396.45654	-997.45123	647.02722	1085.25098	-990.43787	480.73404	1319.66626	-990.85632	440.61310	1153.64587	-1093.55359	656.65607	1226.35486	-832.88684	526.21082	1353.95740	-760.62976	569.85931	1160.80188	-747.68103	590.69940	1039.50464	-741.42346	607.40619	909.75647	-764.32202	637.37555	790.83429	-709.93103	648.51782	806.40210	-721.38892	697.11151	730.10748	-1148.76709	524.92688	1350.75256	-1233.40723	508.00620	1135.43896	-1250.36060	478.91541	1027.97778	-1249.77307	425.42413	902.80902	-1212.04382	367.92984	824.76367	-1253.38049	396.61914	806.88641	-1245.39221	345.74069	755.46741	-885.76453	471.38568	931.06036	-1119.35278	486.29825	912.51672	-923.32428	638.21082	943.79840	-1073.68872	644.39264	942.92761	-829.50177	452.34494	636.75562	-873.23499	391.67444	473.49115	-871.88483	420.95251	273.03366	-915.70105	427.62695	64.56790	-951.28223	468.31485	30.20047	-943.70068	277.33316	31.24548	-1167.85999	564.69836	615.10565	-1149.04016	569.82397	434.71161	-1152.91614	724.95581	317.32678	-1112.24316	893.61829	184.50467	-1058.03162	938.89233	207.37585	-1091.69885	867.65375	45.41254	-951.41595	529.47729	1657.73450																					 
43	0.420	-908.64978	432.62198	1592.33618	-1040.35754	433.31152	1609.88098	-916.99750	560.85742	1550.26953	-1046.84253	556.60028	1566.80090	-985.81824	589.32849	1397.01611	-996.52124	632.44757	1086.08093	-990.06268	466.55621	1320.68201	-990.76953	426.17166	1154.80164	-1092.12048	643.07220	1227.20117	-832.31665	510.70386	1355.03015	-759.57257	552.00110	1161.41467	-746.92169	571.75897	1039.91748	-740.89069	587.08301	910.01190	-763.70856	615.86548	790.90594	-709.18024	626.57800	806.07843	-720.10858	674.72998	729.45776	-1148.04041	511.83340	1351.71692	-1232.08289	496.03369	1135.95605	-1248.85754	468.07675	1028.07202	-1248.65344	416.63672	901.84821	-1211.34607	360.56534	822.47540	-1252.68420	389.74200	805.37439	-1244.71179	340.39224	752.23444	-884.75165	456.95673	932.76147	-1118.60681	471.75751	913.18573	-923.14050	623.93451	945.03229	-1073.29932	630.05847	942.81921	-828.20905	442.30838	636.47870	-871.49652	383.75641	471.99854	-870.93347	416.81042	272.68033	-915.54547	427.52609	64.63071	-951.12396	468.46619	30.36248	-943.54657	277.23987	31.00786	-1166.41589	543.90277	613.23059	-1147.14990	543.38824	433.01477	-1151.70105	698.47510	317.95355	-1109.71619	872.25458	193.34521	-1054.45459	916.91656	215.77458	-1094.17102	847.88000	53.37482	-950.34430	515.18518	1658.45190																					 
